<?xml version="1.0" encoding="utf-8"?>
<!-- Generator: Adobe Illustrator 17.0.0, SVG Export Plug-In . SVG Version: 6.00 Build 0)  -->
<!DOCTYPE svg PUBLIC "-//W3C//DTD SVG 1.1//EN" "http://www.w3.org/Graphics/SVG/1.1/DTD/svg11.dtd">
<svg version="1.1" id="Layer_1" xmlns="http://www.w3.org/2000/svg" xmlns:xlink="http://www.w3.org/1999/xlink" x="0px" y="0px"
	 width="150px" height="150px" viewBox="0 0 150 150" enable-background="new 0 0 150 150" xml:space="preserve">
<g>
	<path d="M54.613,23.39c17.073,0.572,30.919,7.236,41.074,21.057c1.154,1.571,2.191,2.225,4.357,1.934
		c23.612-3.174,43.709,12.997,45.673,36.713c0.569,6.873-0.962,13.417-3.756,19.721c-0.581,1.31-0.75,3.034-0.477,4.445
		c0.72,3.725,1.799,7.38,2.714,11.067c0.742,2.989-1.544,5.589-4.392,4.53c-7.596-2.822-14.496-2.511-22.344,0.557
		c-11.897,4.651-23.67,2.008-34.335-5.155c-0.799-0.537-2.462-0.576-3.327-0.111c-15.865,8.545-31.855,8.724-48.084,1.098
		c-1.12-0.526-2.639-0.746-3.832-0.478c-5.248,1.176-10.445,2.581-15.659,3.908c-3.397,0.865-5.587-1.275-4.733-4.733
		c1.139-4.609,2.271-9.224,3.615-13.775c0.684-2.317,0.233-4.139-0.905-6.222c-15.167-27.786-0.479-63.304,29.817-72.24
		c2.225-0.656,4.477-1.301,6.762-1.651C49.388,23.658,52.045,23.594,54.613,23.39z M15.543,114.701
		c4.581-1.14,8.519-2.313,12.538-3.029c1.706-0.304,3.847-0.146,5.337,0.65c9,4.809,18.506,6.439,28.522,4.913
		c21.314-3.248,37.312-22.806,36.452-44.404c-0.898-22.548-18.157-40.965-40.246-42.307c-17.383-1.056-31.365,5.868-40.472,20.702
		C8.516,66.142,8.71,81.7,17.573,96.902c1.302,2.233,1.546,4.161,0.833,6.549C17.358,106.963,16.582,110.556,15.543,114.701z
		 M136.264,115.467c-0.839-3.53-1.241-5.816-1.942-8.006c-0.762-2.378-0.437-4.405,0.704-6.641
		c8.108-15.883,3.023-34.018-12.197-43.382c-6.579-4.048-13.776-5.37-21.604-4.138c8.318,22.93,4.064,42.756-13.593,59.628
		c9.523,6.042,19.522,7.68,29.555,3.458C123.409,113.768,129.037,111.139,136.264,115.467z"/>
	<path d="M48.793,78.59c0-0.529,0-1.059,0-1.588c0-7.067,0.159-7.274,6.926-9.071c4.171-1.107,6.171-3.502,6.093-7.295
		c-0.071-3.506-2.163-6.057-5.763-7.028c-3.773-1.018-7.665,0.394-9.379,3.472c-0.512,0.918-0.829,1.944-1.267,2.905
		c-0.916,2.011-2.71,3.107-4.606,2.337c-1.529-0.621-3.426-2.236-3.668-3.663c-0.337-1.988,0.247-4.476,1.262-6.288
		c3.536-6.313,11.664-9.33,19.619-7.672c7.829,1.631,12.634,6.598,13.735,14.197c1.019,7.033-3.108,14.016-10.309,16.77
		c-2.324,0.889-3.079,2.032-2.88,4.381c0.141,1.657-0.017,3.392-0.36,5.026c-0.522,2.486-2.21,3.814-4.796,3.659
		c-2.548-0.153-4.155-1.636-4.466-4.117c-0.248-1.979-0.05-4.014-0.05-6.024C48.854,78.591,48.824,78.591,48.793,78.59z"/>
	<path d="M58.909,101.511c-0.046,3.101-2.364,5.27-5.522,5.167c-2.945-0.096-5.05-2.362-4.992-5.373
		c0.057-2.958,2.284-5.192,5.213-5.229C56.601,96.039,58.955,98.452,58.909,101.511z"/>
</g>
</svg>
