<?xml version="1.0" encoding="utf-8"?>
<!-- Generator: Adobe Illustrator 17.0.0, SVG Export Plug-In . SVG Version: 6.00 Build 0)  -->
<!DOCTYPE svg PUBLIC "-//W3C//DTD SVG 1.1//EN" "http://www.w3.org/Graphics/SVG/1.1/DTD/svg11.dtd">
<svg version="1.1" id="Layer_1" xmlns="http://www.w3.org/2000/svg" xmlns:xlink="http://www.w3.org/1999/xlink" x="0px" y="0px"
	 width="150px" height="150px" viewBox="0 0 150 150" enable-background="new 0 0 150 150" xml:space="preserve">
<g>
	<path d="M145.477,86.126c-0.084,0.078-0.161,0.168-0.254,0.234c-5.853,4.182-5.205,10.628-5.889,16.658
		c-1.13,9.966-6.794,16.031-16.411,18.5c-8.47,2.174-16.987,2.775-25.597,0.738c-10.585-2.504-16.357-9.659-16.829-20.642
		c-0.127-2.954-0.511-6.025-1.532-8.76c-0.536-1.437-2.664-3.048-4.15-3.126c-1.256-0.066-3.419,1.75-3.783,3.109
		c-0.973,3.621-1.094,7.46-1.73,11.183c-1.725,10.088-7.126,16.668-17.619,18.542c-9.381,1.676-18.61,1.173-27.558-1.97
		c-9.443-3.317-13.174-10.857-13.886-20.299c-0.112-1.49-0.152-2.989-0.154-4.485c-0.004-2.915-0.708-5.399-3.416-7.076
		c-0.906-0.561-1.442-1.72-2.147-2.606c0-1.152,0-2.303,0-3.455c1.944-3.588,5.508-4.216,9.015-4.802
		c17.308-2.891,34.545-3.032,51.704,1.223c7.653,1.898,15.325,1.177,22.901-0.655c16.421-3.971,32.884-3.045,49.342-0.41
		c3.142,0.503,6.328,1.384,7.993,4.644C145.477,83.822,145.477,84.974,145.477,86.126z M113.368,81.842
		c-5.289,0.342-9.549,0.437-13.762,0.926c-9.84,1.142-13.217,5.191-12.667,15.104c0.133,2.385,0.534,4.815,1.225,7.099
		c1.766,5.838,5.623,9.95,11.699,10.844c5.26,0.774,10.74,1.139,16.004,0.576c11.989-1.281,17.093-7.395,17.229-19.454
		c0.018-1.608,0.066-3.218,0.029-4.825c-0.114-4.992-1.869-7.512-6.794-8.523C121.743,82.647,117.031,82.314,113.368,81.842z
		 M37.527,81.638c-4.641,0.711-9.978,1.381-15.25,2.395c-2.977,0.572-5.09,2.792-5.137,5.76c-0.08,5.011,0.154,10.081,0.88,15.035
		c0.595,4.059,3.417,6.982,7.064,8.824c6.561,3.313,13.621,4.168,20.775,3.073c3.418-0.524,7.111-1.521,9.902-3.436
		c7.41-5.083,7.962-12.942,6.933-20.987c-0.659-5.154-3.514-8.052-8.671-8.843C48.82,82.659,43.552,82.283,37.527,81.638z"/>
	<path d="M7.958,74.886C17.611,60.31,26.873,46.059,36.43,32.009c4.696-6.904,11.433-7.15,16.933-0.803
		c2.994,3.455,5.559,7.301,8.121,11.103c1.004,1.49,2.164,3.413,2.001,5.01c-0.192,1.869-1.33,4.213-2.821,5.235
		c-1.918,1.314-4.021-0.074-5.128-2.074c-1.776-3.208-3.197-6.62-5.077-9.761c-3.355-5.607-7.076-5.773-10.88-0.541
		c-6.554,9.012-12.99,18.109-19.513,27.144C15.831,73.183,15.801,73.161,7.958,74.886z"/>
	<path d="M141.774,74.537c-5.711,0.355-8.961-2.719-11.912-7.121c-6.202-9.253-12.865-18.199-19.419-27.213
		c-3.825-5.26-7.512-5.108-10.882,0.484c-1.712,2.841-3.061,5.901-4.558,8.87c-1.193,2.365-2.84,4.025-5.719,3.15
		c-2.416-0.734-3.682-3.794-2.533-6.624c2.676-6.593,6.719-12.387,12.13-16.927c5.298-4.445,10.514-3.256,14.868,3.093
		c6.3,9.188,12.354,18.544,18.504,27.835C135.421,64.87,138.569,69.67,141.774,74.537z"/>
</g>
</svg>
