<?xml version="1.0" encoding="utf-8"?>
<!-- Generator: Adobe Illustrator 17.0.0, SVG Export Plug-In . SVG Version: 6.00 Build 0)  -->
<!DOCTYPE svg PUBLIC "-//W3C//DTD SVG 1.1//EN" "http://www.w3.org/Graphics/SVG/1.1/DTD/svg11.dtd">
<svg version="1.1" id="Layer_1" xmlns="http://www.w3.org/2000/svg" xmlns:xlink="http://www.w3.org/1999/xlink" x="0px" y="0px"
	 width="150px" height="150px" viewBox="0 0 150 150" enable-background="new 0 0 150 150" xml:space="preserve">
<g>
	<path d="M67.721,106.176c-3.349,0-6.434,0-9.748,0c-0.643-9.913-5.373-18.078-10.228-26.208
		C41.832,70.066,36.273,60.079,35.62,48.1C33.907,16.636,59.948,1.624,83.504,4.067c18.401,1.908,31.933,10.709,37.359,29.054
		c3.745,12.66,1.403,25.001-4.752,36.584c-2.217,4.172-4.968,8.076-6.994,12.331c-3.674,7.716-6.986,15.604-10.759,24.119
		c-1.576,0-4.656,0-7.945,0c-0.068-8.037,2.142-15.169,5.756-21.879c3.733-6.931,7.968-13.603,11.478-20.64
		c6.151-12.333,7.269-24.815-1.056-36.724c-8.824-12.621-28.549-16.743-43.588-9.406c-14.346,6.999-21.016,22.02-15.696,37.787
		c2.584,7.659,6.886,14.787,10.826,21.927c4.6,8.336,8.846,16.718,9.583,26.416C67.77,104.386,67.721,105.143,67.721,106.176z"/>
	<path d="M78.996,119.737c-4.575,0-9.152,0.064-13.725-0.026c-2.512-0.049-4.889-0.653-4.88-3.858
		c0.009-3.279,2.364-3.629,4.93-3.625c9.151,0.016,18.301,0.01,27.452,0.004c2.559-0.002,4.874,0.337,4.857,3.676
		c-0.017,3.303-2.456,3.738-4.908,3.797C88.148,119.816,83.571,119.737,78.996,119.737z"/>
	<path d="M79.484,124.802c4.243,0,8.534-0.37,12.706,0.174c1.781,0.232,4.45,2.175,4.712,3.688c0.478,2.757-1.943,3.754-4.699,3.729
		c-8.799-0.079-17.6-0.076-26.399-0.002c-2.76,0.023-5.17-1.032-4.711-3.754c0.253-1.501,2.96-3.454,4.74-3.661
		C70.329,124.452,74.927,124.802,79.484,124.802z"/>
	<path d="M66.142,137.587c8.641,0,17.137,0,25.798,0C84.641,148.658,72.724,148.543,66.142,137.587z"/>
</g>
</svg>
