<?xml version="1.0" encoding="utf-8"?>
<!-- Generator: Adobe Illustrator 17.0.0, SVG Export Plug-In . SVG Version: 6.00 Build 0)  -->
<!DOCTYPE svg PUBLIC "-//W3C//DTD SVG 1.1//EN" "http://www.w3.org/Graphics/SVG/1.1/DTD/svg11.dtd">
<svg version="1.1" id="Layer_1" xmlns="http://www.w3.org/2000/svg" xmlns:xlink="http://www.w3.org/1999/xlink" x="0px" y="0px"
	 width="150px" height="150px" viewBox="0 0 150 150" enable-background="new 0 0 150 150" xml:space="preserve">
<g>
	<path d="M79.184,144.819c-18.14-21.831-35.46-43.037-46.999-68.387c-12.448-27.349,7.204-61.383,37.962-66.308
		c27.546-4.41,51.674,11.567,58.362,38.181c2.332,9.279,1.475,18.336-2.214,27.214c-6.672,16.058-16.446,30.212-26.853,43.953
		C93.047,127.919,86.224,136.042,79.184,144.819z M104.429,55.868c0.075-13.996-11.099-25.424-24.962-25.529
		C65.307,30.23,53.694,41.481,53.57,55.428C53.444,69.492,64.793,81.01,78.854,81.089C93.11,81.168,104.354,70.08,104.429,55.868z"
		/>
</g>
</svg>
