<?xml version="1.0" encoding="utf-8"?>
<!-- Generator: Adobe Illustrator 17.0.0, SVG Export Plug-In . SVG Version: 6.00 Build 0)  -->
<!DOCTYPE svg PUBLIC "-//W3C//DTD SVG 1.1//EN" "http://www.w3.org/Graphics/SVG/1.1/DTD/svg11.dtd">
<svg version="1.1" id="Layer_1" xmlns="http://www.w3.org/2000/svg" xmlns:xlink="http://www.w3.org/1999/xlink" x="0px" y="0px"
	 width="150px" height="150px" viewBox="0 0 150 150" enable-background="new 0 0 150 150" xml:space="preserve">
<g>
	<path d="M141.652,107.542c0,12.703,0,25.234,0,37.904c-40.928,0-81.628,0-122.917,0c0-11.038-0.371-22.096,0.21-33.104
		c0.192-3.639,1.542-7.693,4.405-10.703c3.079-3.237,7.35-3.778,11.295-4.923c1.796-0.521,3.869-0.089,6.08-0.089
		c0-21.134,0-42.06,0-62.387c9.484-8.973,18.529-17.53,27.973-26.466c15.391,0,31.381,0,47.864,0c0,29.49,0,59.002,0,88.911
		C127.161,96.094,136.64,97.263,141.652,107.542z M48.542,96.379c20.109,0,39.541,0,58.864,0c0-26.777,0-53.304,0-79.653
		c-12.38,0-24.41,0-36.947,0c0,6.495,0,12.79,0,19.071c-6.185,0-11.862-0.098-17.531,0.065c-1.523,0.044-3.022,0.884-4.387,1.312
		C48.542,57.278,48.542,76.716,48.542,96.379z M117.906,108.755c-1.608,0-3.281,0-5.52,0c-1.513,2.046-3.34,4.515-5.459,7.379
		c-1.888-2.507-3.679-4.886-5.502-7.307c-1.819,0-3.639,0-6.509,0c3.208,4.417,5.919,8.149,8.436,11.615
		c-3.043,4.46-5.884,8.624-8.913,13.065c2.417,0,4.57,0,6.669,0c1.535-2.406,3.112-4.877,5.057-7.924
		c2.433,2.993,4.595,5.652,6.348,7.808c2.302,0,3.925,0,5.823,0c-2.764-4.202-5.291-8.045-8.163-12.412
		C112.691,116.996,115.242,112.965,117.906,108.755z M80.618,127.959c1.2,5.539,1.2,5.539,6.815,5.196
		c-2.851-8.579-5.583-16.987-9.344-24.352c-2.524,0-4.171,0-5.067,0c-3.198,8.551-6.205,16.593-9.254,24.744c1.53,0,3.188,0,5.509,0
		c0.625-1.725,1.323-3.651,2.025-5.588C74.379,127.959,77.521,127.959,80.618,127.959z M39.623,133.462c2.294,0,3.945,0,6.1,0
		c0-3.56,0-6.862,0-10.387c3.642,0,6.775,0,9.962,0c0-1.419,0-2.577,0-4.236c-3.431,0-6.767,0-10.091,0c0-2.158,0-3.807,0-5.953
		c3.94,0,7.76,0,11.552,0c0-1.658,0-2.817,0-4.109c-5.932,0-11.696,0-17.523,0C39.623,117.107,39.623,125.159,39.623,133.462z
		 M67.82,32.699c-0.354-4.78,0.212-8.959-0.47-13.619c-2.704,2.704-4.789,4.766-6.847,6.854c-2.053,2.083-4.219,4.076-6.586,6.765
		C59.023,32.699,63.12,32.699,67.82,32.699z"/>
	<path d="M97.241,64.228c0,1.403,0,2.564,0,3.967c-12.321,0-24.513,0-36.834,0c0-1.403,0-2.564,0-3.967
		C72.728,64.228,84.92,64.228,97.241,64.228z"/>
	<path d="M60.407,83.033c0-1.403,0-2.564,0-3.967c12.321,0,24.513,0,36.834,0c0,1.403,0,2.564,0,3.967
		C84.92,83.033,72.728,83.033,60.407,83.033z"/>
	<path d="M97.236,49.394c0,0.912,0,1.58,0,2.478c-12.324,0-24.515,0-36.825,0c0-0.912,0-1.58,0-2.478
		C72.735,49.394,84.926,49.394,97.236,49.394z"/>
	<path d="M72.262,123.093c1.277-2.548,2.434-4.858,3.69-7.366c0.745,2.476,1.435,4.766,2.218,7.366
		C76.027,123.093,74.232,123.093,72.262,123.093z"/>
</g>
</svg>
