<?xml version="1.0" encoding="utf-8"?>
<!-- Generator: Adobe Illustrator 17.0.0, SVG Export Plug-In . SVG Version: 6.00 Build 0)  -->
<!DOCTYPE svg PUBLIC "-//W3C//DTD SVG 1.1//EN" "http://www.w3.org/Graphics/SVG/1.1/DTD/svg11.dtd">
<svg version="1.1" id="Layer_1" xmlns="http://www.w3.org/2000/svg" xmlns:xlink="http://www.w3.org/1999/xlink" x="0px" y="0px"
	 width="150px" height="150px" viewBox="0 0 150 150" enable-background="new 0 0 150 150" xml:space="preserve">
<g>
	<path d="M50.152,98.168c19.873,0,38.939,0.225,57.995-0.1c8.898-0.152,13.665-6.259,13.479-14.369
		c-0.328-14.3,10.461-19.484,21.081-29.333c0.359,15.951,2.337,29.134-1.535,42.052c-4.283,14.288-17.384,23.298-33.523,23.596
		c-15.05,0.278-30.109,0.063-45.165,0.065c-3.972,0-7.944,0-12.068,0c-0.891,6.055-1.587,10.783-2.722,18.49
		c-11.165-10.095-20.769-18.778-31.951-28.889c10.716-9.99,20.516-19.125,31.827-29.67C48.547,86.88,49.201,91.475,50.152,98.168z"
		/>
	<path d="M100.886,33.697c0.863-6.45,1.494-11.164,2.524-18.855c11.267,10.071,20.923,18.701,32.29,28.861
		c-10.675,9.927-20.54,19.1-32.354,30.085c-0.961-7.224-1.609-12.097-2.433-18.295c-5.221-0.324-10.303-0.862-15.39-0.912
		c-12.982-0.126-25.97-0.211-38.949,0.026c-10.069,0.184-17.152,4.821-16.799,13.727c0.594,14.978-10.337,20.47-20.782,30.738
		C8.008,83.033,6.025,69.53,10.326,56.403C15.022,42.068,27.3,33.915,42.974,33.746C61.977,33.541,80.983,33.697,100.886,33.697z"/>
</g>
</svg>
