<?xml version="1.0" encoding="utf-8"?>
<!-- Generator: Adobe Illustrator 17.0.0, SVG Export Plug-In . SVG Version: 6.00 Build 0)  -->
<!DOCTYPE svg PUBLIC "-//W3C//DTD SVG 1.1//EN" "http://www.w3.org/Graphics/SVG/1.1/DTD/svg11.dtd">
<svg version="1.1" id="Layer_1" xmlns="http://www.w3.org/2000/svg" xmlns:xlink="http://www.w3.org/1999/xlink" x="0px" y="0px"
	 width="150px" height="150px" viewBox="0 0 150 150" enable-background="new 0 0 150 150" xml:space="preserve">
<g>
	<path d="M13.584,30.99c40.969,0,81.937,0,123.358,0c-0.714,0.875-1.155,1.525-1.702,2.07
		c-16.293,16.23-32.582,32.464-48.905,48.665c-7.198,7.144-15.647,7.057-22.865-0.148C47.567,65.702,31.672,49.82,15.753,33.962
		c-0.82-0.817-1.841-1.433-2.768-2.142C13.185,31.543,13.384,31.267,13.584,30.99z"/>
	<path d="M13.888,131.804c13.709-13.89,27.469-27.832,41.221-41.766c16.751,11.574,24.777,11.565,39.69-0.245
		c13.706,14.149,27.444,28.33,40.697,42.011C95.628,131.804,54.591,131.804,13.888,131.804z"/>
	<path d="M4.96,123.573c0-28.175,0-55.901,0-83.075c13.619,13.714,27.51,27.702,41.277,41.566
		C33.111,95.263,19.225,109.227,4.96,123.573z"/>
	<path d="M104.531,81.122c13.09-13.201,26.856-27.085,40.749-41.097c0,27.657,0,55.252,0,82.426
		C131.788,108.767,118.048,94.832,104.531,81.122z"/>
</g>
</svg>
