<?xml version="1.0" encoding="utf-8"?>
<!-- Generator: Adobe Illustrator 17.0.0, SVG Export Plug-In . SVG Version: 6.00 Build 0)  -->
<!DOCTYPE svg PUBLIC "-//W3C//DTD SVG 1.1//EN" "http://www.w3.org/Graphics/SVG/1.1/DTD/svg11.dtd">
<svg version="1.1" id="Layer_1" xmlns="http://www.w3.org/2000/svg" xmlns:xlink="http://www.w3.org/1999/xlink" x="0px" y="0px"
	 width="150px" height="150px" viewBox="0 0 150 150" enable-background="new 0 0 150 150" xml:space="preserve">
<g>
	<path d="M122.861,74.926c0,18.011,0.007,36.022-0.003,54.033c-0.005,9.725-7.163,16.854-16.955,16.861
		c-20.635,0.015-41.27,0.018-61.905-0.002c-10.023-0.009-16.989-7.066-16.991-17.18C27,93.093,27.004,57.548,27.005,22.004
		c0-10.282,6.645-17.56,16.992-17.682c20.394-0.24,40.793-0.158,61.188-0.035c10.919,0.066,18.088,7.818,17.803,18.399
		C122.519,40.088,122.861,57.511,122.861,74.926z M74.577,42.867c10.145,0,20.29,0.019,30.434-0.01
		c3.947-0.011,4.974-0.978,5.011-4.783c0.05-5.131-0.086-10.265-0.001-15.395c0.056-3.389-1.712-4.82-4.819-4.825
		c-20.17-0.032-40.341-0.045-60.511,0.008c-3.532,0.009-4.801,1.489-4.825,5.144c-0.033,4.893-0.035,9.787-0.001,14.68
		c0.029,4.265,0.964,5.168,5.35,5.176C55.004,42.881,64.791,42.868,74.577,42.867z M101.373,79.277
		c4.819-0.006,8.601-3.798,8.545-8.569c-0.056-4.846-3.863-8.652-8.593-8.592c-4.948,0.063-8.489,3.668-8.458,8.612
		C92.899,75.693,96.471,79.283,101.373,79.277z M101.428,131.664c4.818,0.01,8.417-3.429,8.49-8.113
		c0.075-4.756-3.748-8.973-8.22-9.069c-4.719-0.102-8.751,3.719-8.821,8.358C92.8,127.988,96.353,131.654,101.428,131.664z
		 M57.109,71.065c0.061-4.828-3.713-8.876-8.339-8.946c-4.748-0.072-8.757,3.775-8.82,8.464c-0.061,4.501,3.782,8.57,8.202,8.685
		C53.142,79.397,57.049,75.82,57.109,71.065z M83.52,70.664c-0.061-4.747-4.013-8.622-8.718-8.549
		c-4.534,0.07-8.368,3.957-8.396,8.511c-0.029,4.73,3.873,8.659,8.584,8.642C79.911,79.251,83.583,75.547,83.52,70.664z
		 M92.88,96.832c-0.004,4.809,3.784,8.74,8.452,8.771c4.513,0.03,8.507-3.826,8.586-8.291c0.09-5.105-3.609-8.867-8.665-8.812
		C96.489,88.552,92.884,92.139,92.88,96.832z M48.325,88.519c-4.65,0.068-8.391,3.819-8.37,8.391
		c0.022,4.778,4.244,8.843,9.007,8.67c4.257-0.154,8.135-4.144,8.129-8.363C57.084,92.138,53.361,88.445,48.325,88.519z
		 M83.461,97.038c-0.084-4.925-3.732-8.548-8.577-8.519c-4.884,0.029-8.534,3.732-8.473,8.594c0.057,4.554,4.261,8.615,8.786,8.488
		C79.71,105.475,83.538,101.509,83.461,97.038z M83.525,123.354c-0.001-4.644-3.964-8.747-8.52-8.824
		c-4.534-0.076-8.655,4.09-8.595,8.688c0.064,4.857,3.789,8.471,8.685,8.424C79.842,131.597,83.527,127.974,83.525,123.354z
		 M57.105,123.355c-0.035-4.681-4.09-8.889-8.492-8.812c-4.695,0.081-8.611,4.005-8.658,8.674c-0.045,4.532,4.085,8.509,8.753,8.429
		C53.474,131.563,57.139,127.944,57.105,123.355z"/>
</g>
</svg>
