<?xml version="1.0" encoding="utf-8"?>
<!-- Generator: Adobe Illustrator 17.0.0, SVG Export Plug-In . SVG Version: 6.00 Build 0)  -->
<!DOCTYPE svg PUBLIC "-//W3C//DTD SVG 1.1//EN" "http://www.w3.org/Graphics/SVG/1.1/DTD/svg11.dtd">
<svg version="1.1" id="Layer_1" xmlns="http://www.w3.org/2000/svg" xmlns:xlink="http://www.w3.org/1999/xlink" x="0px" y="0px"
	 width="150px" height="150px" viewBox="0 0 150 150" enable-background="new 0 0 150 150" xml:space="preserve">
<path d="M145.51,64.206c-0.001-6.435-2.536-11.677-7.041-15.082c-7.414-6.827-40.532-37.341-44.627-41.431
	C87.797,1.66,72.279-1.419,61.716,7.495c-7.796,6.577-38.997,33.713-47.449,41.069c-5.118,3.563-7.798,8.602-7.798,15.095
	c-0.002,21.156-0.005,42.313,0.001,63.47c0.002,9.503,5.291,16.237,14.572,18.613c0.231,0.059,0.415,0.303,0.621,0.461
	c36.102,0,72.203,0,108.305,0c4.561-1.347,8.807-3.215,11.714-7.232c2.5-3.453,3.86-7.25,3.85-11.588
	C145.484,106.324,145.513,85.265,145.51,64.206z M66.23,12.845c7.568-6.385,19.138-3.72,22.665-0.199
	c4.487,4.481,41.147,38.236,45.839,42.555c-12.204,12.288-24.359,24.527-36.819,37.073c-5.662-5.731-11.298-11.477-16.98-17.176
	c-4.188-4.2-8.552-4.156-12.774,0.106c-5.336,5.387-10.634,10.812-15.878,16.15C40.378,79.301,28.715,67.49,16.913,55.54
	C19.783,53.042,57.573,20.149,66.23,12.845z M12.003,59.869C23.969,71.97,35.646,83.777,47.047,95.307
	c-11.434,11.533-23.143,23.342-35.045,35.346C12.003,107.047,12.003,83.565,12.003,59.869z M125.933,141.055
	c-33.32,0.044-66.641,0.044-99.961,0.004c-4.3-0.005-8.172-1.272-11.175-4.923c0.429-0.516,0.784-1.019,1.214-1.448
	c18.615-18.556,37.234-37.109,55.862-55.652c2.311-2.301,3.207-2.373,5.318-0.269c19.335,19.276,38.65,38.573,57.965,57.868
	c0.186,0.186,0.304,0.441,0.584,0.857C132.906,140.267,129.497,141.051,125.933,141.055z M140.403,126.289
	c-0.006,2.131-0.553,4.26-0.905,6.793c-12.546-12.732-24.648-25.014-36.63-37.174c11.859-11.882,24.107-24.154,36.813-36.884
	c0.281,2.206,0.725,4.093,0.73,5.981C140.461,85.433,140.467,105.861,140.403,126.289z"/>
</svg>
