<?xml version="1.0" encoding="utf-8"?>
<!-- Generator: Adobe Illustrator 17.0.0, SVG Export Plug-In . SVG Version: 6.00 Build 0)  -->
<!DOCTYPE svg PUBLIC "-//W3C//DTD SVG 1.1//EN" "http://www.w3.org/Graphics/SVG/1.1/DTD/svg11.dtd">
<svg version="1.1" id="Layer_1" xmlns="http://www.w3.org/2000/svg" xmlns:xlink="http://www.w3.org/1999/xlink" x="0px" y="0px"
	 width="150px" height="150px" viewBox="0 0 150 150" enable-background="new 0 0 150 150" xml:space="preserve">
<g>
	<path d="M76.551,143.258c-4.6-2.286-8.798-4.385-13.007-6.461c-9.181-4.529-18.352-9.081-27.563-13.549
		c-2.668-1.294-3.914-3.132-3.908-6.204c0.066-33.748,0.034-67.497,0.05-101.246c0.002-4.148,1.82-6.184,5.992-6.196
		c23.271-0.064,46.542-0.047,69.813,0.017c3.945,0.011,5.786,2.038,5.787,6.011c0.008,33.197,0,66.394-0.024,99.591
		c-0.003,4.062-1.789,5.951-5.764,5.986c-7.714,0.067-15.429,0.02-23.435,0.02c0-3.648,0-7.206,0-11.117c5.96,0,11.969,0,18.178,0
		c0-29.853,0-59.361,0-89.139c-15.73,0-31.411,0-47.999,0c4.345,2.208,8.015,4.034,11.647,5.932
		c3.396,1.774,7.999,2.845,9.766,5.667c1.696,2.708,0.463,7.269,0.464,11.016c0.008,31.873,0.004,63.747,0.003,95.62
		C76.551,140.391,76.551,141.574,76.551,143.258z"/>
</g>
</svg>
