<?xml version="1.0" encoding="utf-8"?>
<!-- Generator: Adobe Illustrator 17.0.0, SVG Export Plug-In . SVG Version: 6.00 Build 0)  -->
<!DOCTYPE svg PUBLIC "-//W3C//DTD SVG 1.1//EN" "http://www.w3.org/Graphics/SVG/1.1/DTD/svg11.dtd">
<svg version="1.1" id="Layer_1" xmlns="http://www.w3.org/2000/svg" xmlns:xlink="http://www.w3.org/1999/xlink" x="0px" y="0px"
	 width="150px" height="150px" viewBox="0 0 150 150" enable-background="new 0 0 150 150" xml:space="preserve">
<g>
	<path d="M130.337,131.869c-36.102,0-72.203,0-108.305,0c-0.226-0.145-0.433-0.366-0.679-0.423
		c-9.321-2.178-14.862-9.125-14.863-18.665C6.487,91.722,6.515,70.663,6.467,49.605c-0.01-4.338,1.35-8.135,3.85-11.588
		c2.907-4.017,7.153-5.885,11.714-7.232c36.102,0,72.203,0,108.305,0c0.206,0.158,0.39,0.402,0.621,0.461
		c9.281,2.376,14.57,9.11,14.572,18.613c0.006,21.157,0.003,42.314,0.001,63.47c0,6.963-3.078,12.257-8.945,15.848
		C134.671,130.349,132.429,130.987,130.337,131.869z M16.259,39.495c0.28,0.416,0.398,0.671,0.584,0.857
		C36.158,59.647,55.473,78.944,74.808,98.22c2.111,2.104,3.007,2.032,5.318-0.269c18.628-18.543,37.247-37.096,55.862-55.652
		c0.43-0.429,0.785-0.932,1.214-1.448c-3.003-3.651-6.875-4.918-11.175-4.923c-33.32-0.04-66.641-0.04-99.961,0.004
		C22.503,35.936,19.093,36.72,16.259,39.495z M54.085,84.713c-12.88,12.969-25.433,25.609-38.052,38.315
		c2.707,2.844,6.432,3.676,10.394,3.703c8.143,0.056,16.286,0.017,24.43,0.017c24.8,0,49.6,0.009,74.4-0.009
		c4.434-0.003,8.546-0.904,11.1-4.005C124.12,110.343,112.05,98.12,99.717,85.633c-5.244,5.338-10.542,10.763-15.878,16.15
		c-4.222,4.262-8.586,4.306-12.774,0.106C65.383,96.19,59.747,90.444,54.085,84.713z M12.319,117.963
		c12.706-12.73,24.954-25.002,36.813-36.884C37.15,68.919,25.048,56.637,12.502,43.905c-0.352,2.533-0.899,4.662-0.905,6.793
		c-0.065,20.428-0.058,40.856-0.008,61.284C11.594,113.87,12.038,115.757,12.319,117.963z M104.952,81.68
		c11.402,11.53,23.078,23.337,35.045,35.438c0-23.696,0-47.178,0-70.784C128.095,58.338,116.386,70.147,104.952,81.68z"/>
</g>
</svg>
