<?xml version="1.0" encoding="utf-8"?>
<!-- Generator: Adobe Illustrator 17.0.0, SVG Export Plug-In . SVG Version: 6.00 Build 0)  -->
<!DOCTYPE svg PUBLIC "-//W3C//DTD SVG 1.1//EN" "http://www.w3.org/Graphics/SVG/1.1/DTD/svg11.dtd">
<svg version="1.1" id="Layer_1" xmlns="http://www.w3.org/2000/svg" xmlns:xlink="http://www.w3.org/1999/xlink" x="0px" y="0px"
	 width="150px" height="150px" viewBox="0 0 150 150" enable-background="new 0 0 150 150" xml:space="preserve">
<g>
	<path d="M2.295,29.276c1.565-0.588,3.332-1.892,4.627-1.526c0.958,0.271,1.834,2.714,1.839,4.193
		c0.105,28.588,0.103,57.177-0.004,85.764c-0.006,1.481-0.87,3.922-1.83,4.199c-1.292,0.372-3.065-0.926-4.632-1.507
		C2.295,90.024,2.295,59.65,2.295,29.276z"/>
	<path d="M147.705,120.399c-1.243,1.452-2.869,2.896-4.606,1.62c-1.101-0.808-1.841-2.825-1.846-4.303
		c-0.108-28.594-0.111-57.188-0.008-85.782c0.005-1.476,0.883-3.92,1.835-4.185c1.3-0.361,3.062,0.939,4.625,1.527
		C147.705,59.65,147.705,90.024,147.705,120.399z"/>
	<path d="M15.354,96.586c0-15.161,0-30.737,0-45.355c3.698-1.786,7.024-3.08,10.026-4.906c7.149-4.349,14.109-9.01,21.226-13.413
		c2.022-1.251,4.323-2.011,7.824,0.927c-1.393,0.782-2.83,1.25-3.806,2.194c-4.796,4.637-9.526,9.346-14.173,14.133
		c-5.693,5.864-5.735,14.388-0.22,19.978c5.581,5.656,14.06,5.854,19.974,0.177c5.66-5.434,11.068-11.132,16.744-16.873
		c0.948,0.794,1.71,1.345,2.371,1.999c15.463,15.277,30.909,30.571,46.373,45.848c3.291,3.251,4.407,7.08,2.942,11.471
		c-1.365,4.091-4.456,6.343-8.657,6.609c-2.163,0.137-4.382-0.603-6.607-0.952c-2.066,8.089-10.674,12.027-18.863,4.816
		c-1.11,4.665-3.634,7.971-8.487,8.778c-4.86,0.808-8.511-1.422-11.446-5.212c-4.097,8.486-13.159,8.564-18.963,2.356
		c-9.551-10.213-19.611-19.957-29.653-29.697C20.455,98.006,17.886,97.645,15.354,96.586z"/>
	<path d="M134.037,97.177c-5.724,1.118-10.428,0.227-14.701-4.159C106.718,80.066,93.787,67.42,80.949,54.684
		c-1.907-1.892-4.072-3.527-5.941-5.453c-1.639-1.69-2.738-1.253-4.21,0.253C65.08,55.334,59.3,61.128,53.445,66.841
		c-2.791,2.723-6.117,3.865-10.043,2.561c-3.733-1.24-5.883-3.843-6.597-7.603c-0.602-3.165,0.365-6.022,2.597-8.276
		c9.848-9.942,19.709-19.874,29.686-29.686c3.33-3.275,7.452-3.733,11.89-1.199c11.19,6.388,22.247,13.009,33.354,19.541
		c1.573,0.925,3.11,1.915,4.702,2.807c4.63,2.593,8.848,6.373,15.003,4.677C134.037,65.867,134.037,81.515,134.037,97.177z"/>
</g>
</svg>
