<?xml version="1.0" encoding="utf-8"?>
<!-- Generator: Adobe Illustrator 17.0.0, SVG Export Plug-In . SVG Version: 6.00 Build 0)  -->
<!DOCTYPE svg PUBLIC "-//W3C//DTD SVG 1.1//EN" "http://www.w3.org/Graphics/SVG/1.1/DTD/svg11.dtd">
<svg version="1.1" id="Layer_1" xmlns="http://www.w3.org/2000/svg" xmlns:xlink="http://www.w3.org/1999/xlink" x="0px" y="0px"
	 width="150px" height="150px" viewBox="0 0 150 150" enable-background="new 0 0 150 150" xml:space="preserve">
<g>
	<path d="M53.671,6.102c0.356,12.535,0.742,25.07,1.008,37.608c0.021,1.008-0.497,2.45-1.259,2.985
		c-5.764,4.048-7.879,10.136-4.605,16.516c7.338,14.3,14.909,28.489,22.735,42.528c3.603,6.463,7.984,7.475,14.937,4.746
		c0.727-0.286,1.956-0.309,2.506,0.119c9.884,7.694,19.699,15.476,29.523,23.247c0.184,0.146,0.29,0.391,0.533,0.731
		c-6.669,4.454-14.192,6.657-21.666,8.975c-2.984,0-5.969,0-8.953,0c-7.682-1.842-14.598-5.291-20.505-10.488
		c-4.264-3.752-8.409-7.707-12.143-11.978c-7.841-8.969-15.116-18.446-20.409-29.159c-6.308-12.768-8.683-26.643-10.133-40.685
		c-0.411-3.982-0.71-7.976-1.061-11.965c0-2.984,0-5.969,0-8.953c0.138-0.4,0.353-0.79,0.403-1.201
		c1.328-10.91,7.98-17.292,17.905-20.649c3.428-1.159,7.098-1.604,10.657-2.376C53.32,6.102,53.496,6.102,53.671,6.102z"/>
	<path d="M125.821,124.07c-0.967,2.659-1.933,5.318-2.997,8.246c-10.645-8.476-21.219-16.896-32.144-25.595
		c2.963-1.548,5.511-3.558,8.347-4.126c1.938-0.388,4.606,0.778,6.378,2.045c5.755,4.115,11.301,8.531,16.804,12.984
		c1.435,1.161,2.42,2.878,3.612,4.34C125.821,122.665,125.821,123.367,125.821,124.07z"/>
	<path d="M59.991,6.102c0.613,0.277,1.214,0.587,1.842,0.825c4.109,1.561,6.568,3.902,6.334,8.93
		c-0.333,7.168,0.146,14.373,0.24,21.563c0.046,3.503-5.295,8.313-8.754,7.759c-0.543-0.087-1.262-1.297-1.295-2.015
		c-0.395-8.756-0.713-17.515-0.972-26.276c-0.106-3.593-0.024-7.191-0.027-10.786C58.235,6.102,59.113,6.102,59.991,6.102z"/>
	<path fill="#FFFFFF" d="M53.144,6.102c-3.559,0.771-7.229,1.217-10.657,2.376c-9.925,3.356-16.577,9.739-17.905,20.649
		c-0.05,0.411-0.265,0.801-0.403,1.201c0-8.075,0-16.15,0-24.225C33.834,6.102,43.489,6.102,53.144,6.102z"/>
</g>
</svg>
