<?xml version="1.0" encoding="utf-8"?>
<!-- Generator: Adobe Illustrator 17.0.0, SVG Export Plug-In . SVG Version: 6.00 Build 0)  -->
<!DOCTYPE svg PUBLIC "-//W3C//DTD SVG 1.1//EN" "http://www.w3.org/Graphics/SVG/1.1/DTD/svg11.dtd">
<svg version="1.1" id="Layer_1" xmlns="http://www.w3.org/2000/svg" xmlns:xlink="http://www.w3.org/1999/xlink" x="0px" y="0px"
	 width="1458.965px" height="721.5px" viewBox="0 0 1458.965 721.5" enable-background="new 0 0 1458.965 721.5"
	 xml:space="preserve">
<path fill="#CFEADF" d="M9.325,87.685c0,0,372.042,684.134,1166.802,342.502c-3.952-299.285,0-357.7,0-357.7
	s-509.827,575.535-1170.37,0"/>
<g>
	<g>
		<path fill="#BFC7C1" d="M95.159,96.043h49.472v12.918h-7.294c-2.072,0-3.611,0.885-4.622,2.639
			c-1.011,1.762-1.517,4.124-1.517,7.084v67.367h40.733v-63.895c0-4.905-0.542-8.334-1.625-10.279s-2.902-2.917-5.453-2.917h-6.211
			V96.043h49.544v12.918h-6.644c-2.553,0-4.358,0.929-5.417,2.778c-1.061,1.858-1.589,4.723-1.589,8.612v155.153
			c0,4.54,0.542,7.848,1.625,9.931s2.611,3.125,4.586,3.125h7.439v12.918h-49.544V288.56h7.511c2.07,0,3.55-0.877,4.442-2.639
			c0.889-1.754,1.336-4.723,1.336-8.89v-73.896h-40.733v73.896c0,3.985,0.433,6.902,1.3,8.751c0.867,1.858,2.045,2.778,3.539,2.778
			h8.594v12.918H95.159V288.56h7.944c1.828,0,3.164-0.903,4.008-2.709c0.842-1.806,1.264-4.74,1.264-8.82V122.156
			c0-4.809-0.555-8.213-1.661-10.209c-1.108-1.988-2.889-2.986-5.344-2.986h-6.211V96.043z"/>
		<path fill="#BFC7C1" d="M304.13,95.077c10.321,0,19.841,4.509,28.56,13.51c8.717,9.01,15.507,21.29,20.374,36.85
			c4.864,15.56,7.297,33.111,7.297,52.636c0,29.698-5.371,54.443-16.114,74.236c-10.742,19.801-24.066,29.698-39.969,29.698
			c-10.571,0-20.04-4.501-28.412-13.51c-8.372-9.001-14.979-21.157-19.818-36.449c-4.841-15.292-7.26-33.061-7.26-53.306
			c0-30.049,5.309-54.845,15.928-74.37C275.333,104.839,288.472,95.077,304.13,95.077z M304.574,107.926
			c-5.878,0-10.979,2.92-15.299,8.759c-4.322,5.848-7.756,15.276-10.298,28.292c-2.544,13.017-3.815,30.852-3.815,53.498
			c0,23.808,1.171,41.845,3.519,54.1c2.345,12.264,5.765,21.332,10.261,27.222c4.494,5.881,9.728,8.826,15.706,8.826
			c8.839,0,15.903-6.843,21.189-20.529c5.283-13.686,7.927-37.469,7.927-71.358c0-23.716-1.137-41.527-3.408-53.431
			c-2.273-11.904-5.656-20.772-10.15-26.619C315.71,110.846,310.501,107.926,304.574,107.926z"/>
		<path fill="#BFC7C1" d="M399.254,95.077h97.159l2.48,78.847h-6.838c-1.604-16.836-3.682-29.971-6.237-39.423
			c-2.555-9.444-5.474-16.152-8.754-20.133c-3.283-3.972-6.875-5.963-10.783-5.963c-2.254,0-3.907,0.868-4.959,2.595
			c-1.052,1.736-1.578,4.235-1.578,7.506v160.499c0,3.087,0.512,5.612,1.54,7.576c1.026,1.964,2.266,2.946,3.72,2.946h12.624v13.048
			H418.19v-13.048h12.023c1.803,0,3.231-0.956,4.283-2.876c1.052-1.912,1.578-4.463,1.578-7.646V119.348
			c0-3.735-0.54-6.497-1.616-8.278c-1.078-1.771-2.768-2.666-5.072-2.666c-12.774,0-21.415,21.842-25.924,65.519h-6.612
			L399.254,95.077z"/>
		<path fill="#BFC7C1" d="M534.23,95.077h97.159l2.48,78.847h-6.838c-1.604-16.836-3.682-29.971-6.237-39.423
			c-2.555-9.444-5.474-16.152-8.754-20.133c-3.283-3.972-6.875-5.963-10.783-5.963c-2.254,0-3.907,0.868-4.959,2.595
			c-1.052,1.736-1.578,4.235-1.578,7.506v160.499c0,3.087,0.512,5.612,1.54,7.576c1.026,1.964,2.266,2.946,3.72,2.946h12.624v13.048
			h-59.437v-13.048h12.023c1.803,0,3.231-0.956,4.283-2.876c1.052-1.912,1.578-4.463,1.578-7.646V119.348
			c0-3.735-0.54-6.497-1.616-8.278c-1.078-1.771-2.768-2.666-5.072-2.666c-12.774,0-21.415,21.842-25.924,65.519h-6.612
			L534.23,95.077z"/>
		<path fill="#BFC7C1" d="M664.726,95.077h58.9v13.048H712.98c-2.283,0-3.939,0.824-4.973,2.455
			c-1.039,1.64-1.554,4.051-1.554,7.225v160.64c0,3.744,0.544,6.41,1.632,7.997c1.399,2.061,3.419,3.087,6.061,3.087h9.48v13.048
			h-58.9v-13.048h9.014c3.108,0,5.294-0.929,6.566-2.806c1.268-1.868,1.904-4.63,1.904-8.277V119.629
			c0-3.928-0.583-6.822-1.748-8.698c-1.166-1.868-2.992-2.806-5.478-2.806h-10.257V95.077z"/>
		<path fill="#BFC7C1" d="M753.988,95.077h35.569l62.071,141.872v-96.4c0-9.514-1.501-17.139-4.495-22.876
			c-2.998-5.736-7.26-8.928-12.786-9.584V95.077h41.845v13.012c-5.841,1.119-10.025,4.267-12.554,9.444
			c-2.533,5.177-3.797,12.854-3.797,23.016v161.459h-8.96l-70.624-163.252v113.067c0,12.951,1.637,22.386,4.921,28.297
			c3.279,5.92,7.347,8.876,12.205,8.876h1.937v13.012h-46.262v-13.012h3.177c4.543,0,8.369-3.262,11.469-9.776
			c3.1-6.523,4.65-14.909,4.65-25.158V120.488c-3.463-8.264-7.88-12.4-13.251-12.4h-5.114V95.077z"/>
		<path fill="#BFC7C1" d="M1000.061,95.077h5.462l2.77,79.847h-6.77c-3.645-23.863-8.578-41.089-14.81-51.677
			c-6.232-10.58-13.17-15.875-20.81-15.875c-5.847,0-11.17,3.065-15.964,9.179c-4.799,6.122-8.554,15.689-11.271,28.693
			c-2.722,13.004-4.078,30.762-4.078,53.256c0,25.29,1.125,44.103,3.38,56.431c2.255,12.337,5.683,21.49,10.295,27.477
			c4.606,5.987,9.91,8.976,15.901,8.976c7.89,0,14.06-3.918,18.517-11.754c4.453-7.836,6.684-18.239,6.684-31.209v-18.239
			c0-3.327-0.5-5.826-1.5-7.498c-1-1.663-2.452-2.499-4.347-2.499h-11.925v-12.295h55.084v12.295h-6.924
			c-2.462,0-4.246,0.878-5.347,2.635c-1.106,1.756-1.654,4.214-1.654,7.363v73.632h-6.001l-9.617-33.641
			c-4.308,11.712-9.323,20.266-15.04,25.67c-5.722,5.404-12.454,8.106-20.195,8.106c-10.309,0-19.695-4.315-28.158-12.962
			c-8.463-8.638-15.002-20.477-19.618-35.507c-4.616-15.03-6.924-33.084-6.924-54.143c0-31.057,5.438-56.524,16.31-76.418
			c10.876-19.894,24.186-29.841,39.933-29.841c5.847,0,11.054,1.511,15.617,4.526c4.563,3.023,9.41,8.309,14.545,15.875
			L1000.061,95.077z"/>
		<path fill="#BFC7C1" d="M1111.115,95.077l39.928,182.831c1.152,5.149,2.403,8.637,3.744,10.471
			c1.35,1.843,3.123,2.756,5.336,2.756h3.888v12.813h-49.962v-12.813h4.679c3.694,0,6.236-0.775,7.631-2.342
			c1.39-1.559,2.088-3.625,2.088-6.2c0-2.015-0.288-4.357-0.864-7.027l-8.211-37.751h-39.861l-3.789,17.222
			c-1.584,7.164-2.376,12.495-2.376,15.982c0,5.976,1.152,10.816,3.46,14.536c2.308,3.72,5.458,5.58,9.449,5.58h3.388v12.813
			h-40.459v-12.813h2.313c2.601,0,4.886-1.559,6.862-4.684c2.794-4.409,4.958-10.058,6.502-16.947l38.173-174.427H1111.115z
			 M1099.543,146.666l-17.062,77.646h33.953L1099.543,146.666z"/>
	</g>
</g>
<g>
	<g>
		<path fill="#008F5B" d="M92.105,355.545h49.472v12.918h-7.294c-2.072,0-3.611,0.885-4.622,2.639
			c-1.011,1.762-1.517,4.124-1.517,7.084v67.367h40.733v-63.895c0-4.905-0.542-8.334-1.625-10.279
			c-1.083-1.945-2.902-2.917-5.453-2.917h-6.211v-12.918h49.544v12.918h-6.644c-2.553,0-4.358,0.929-5.417,2.778
			c-1.061,1.858-1.589,4.723-1.589,8.612v155.153c0,4.54,0.542,7.848,1.625,9.931c1.083,2.083,2.611,3.125,4.586,3.125h7.439v12.918
			h-49.544v-12.918h7.511c2.07,0,3.55-0.877,4.442-2.639c0.889-1.754,1.336-4.723,1.336-8.89v-73.896h-40.733v73.896
			c0,3.985,0.433,6.902,1.3,8.751c0.867,1.858,2.045,2.778,3.539,2.778h8.594v12.918H92.105v-12.918h7.944
			c1.828,0,3.164-0.903,4.008-2.709c0.842-1.806,1.264-4.74,1.264-8.82V381.658c0-4.809-0.555-8.213-1.661-10.209
			c-1.108-1.988-2.889-2.986-5.344-2.986h-6.211V355.545z"/>
		<path fill="#008F5B" d="M301.075,354.578c10.321,0,19.841,4.509,28.56,13.51c8.717,9.01,15.507,21.29,20.374,36.85
			c4.864,15.56,7.297,33.111,7.297,52.636c0,29.698-5.371,54.443-16.114,74.236c-10.742,19.801-24.066,29.698-39.969,29.698
			c-10.571,0-20.04-4.501-28.412-13.51c-8.372-9.001-14.979-21.157-19.818-36.449c-4.841-15.292-7.26-33.061-7.26-53.306
			c0-30.049,5.309-54.845,15.928-74.37C272.279,364.341,285.417,354.578,301.075,354.578z M301.52,367.428
			c-5.878,0-10.979,2.92-15.299,8.759c-4.322,5.848-7.756,15.276-10.298,28.292c-2.544,13.017-3.815,30.852-3.815,53.498
			c0,23.808,1.171,41.845,3.519,54.1c2.345,12.264,5.765,21.332,10.261,27.222c4.494,5.881,9.728,8.826,15.706,8.826
			c8.839,0,15.903-6.843,21.189-20.529c5.283-13.686,7.927-37.469,7.927-71.358c0-23.716-1.137-41.527-3.408-53.431
			c-2.274-11.904-5.656-20.772-10.15-26.619C312.656,370.348,307.446,367.428,301.52,367.428z"/>
		<path fill="#008F5B" d="M396.2,354.578h97.159l2.48,78.847H489c-1.604-16.836-3.682-29.971-6.237-39.423
			c-2.555-9.444-5.474-16.152-8.754-20.133c-3.283-3.972-6.875-5.963-10.783-5.963c-2.254,0-3.907,0.868-4.959,2.595
			c-1.052,1.736-1.578,4.235-1.578,7.506v160.499c0,3.087,0.512,5.612,1.54,7.576c1.026,1.964,2.266,2.946,3.72,2.946h12.624v13.048
			h-59.437V549.03h12.023c1.803,0,3.231-0.956,4.283-2.876c1.052-1.912,1.578-4.463,1.578-7.646V378.85
			c0-3.735-0.54-6.497-1.616-8.277c-1.078-1.771-2.768-2.666-5.072-2.666c-12.774,0-21.415,21.842-25.924,65.519h-6.612
			L396.2,354.578z"/>
		<path fill="#008F5B" d="M531.175,354.578h97.159l2.48,78.847h-6.838c-1.604-16.836-3.682-29.971-6.237-39.423
			c-2.555-9.444-5.474-16.152-8.754-20.133c-3.283-3.972-6.875-5.963-10.783-5.963c-2.254,0-3.907,0.868-4.959,2.595
			c-1.052,1.736-1.578,4.235-1.578,7.506v160.499c0,3.087,0.512,5.612,1.54,7.576c1.026,1.964,2.266,2.946,3.719,2.946h12.624
			v13.048h-59.437V549.03h12.023c1.803,0,3.231-0.956,4.283-2.876c1.052-1.912,1.578-4.463,1.578-7.646V378.85
			c0-3.735-0.54-6.497-1.616-8.277c-1.078-1.771-2.768-2.666-5.072-2.666c-12.774,0-21.415,21.842-25.924,65.519h-6.612
			L531.175,354.578z"/>
		<path fill="#008F5B" d="M661.671,354.578h58.9v13.048h-10.645c-2.283,0-3.939,0.824-4.973,2.455
			c-1.039,1.64-1.554,4.051-1.554,7.225v160.64c0,3.744,0.544,6.41,1.632,7.997c1.399,2.061,3.419,3.087,6.061,3.087h9.48v13.048
			h-58.9V549.03h9.014c3.108,0,5.294-0.929,6.566-2.806c1.268-1.868,1.904-4.63,1.904-8.277V379.13c0-3.928-0.583-6.822-1.748-8.698
			c-1.166-1.868-2.992-2.806-5.478-2.806h-10.257V354.578z"/>
		<path fill="#008F5B" d="M750.934,354.578h35.569l62.071,141.872v-96.4c0-9.514-1.501-17.139-4.495-22.876
			c-2.998-5.736-7.26-8.928-12.786-9.584v-13.012h41.845v13.012c-5.841,1.119-10.025,4.267-12.554,9.444
			c-2.533,5.177-3.797,12.854-3.797,23.016v161.459h-8.96l-70.624-163.252v113.067c0,12.951,1.637,22.386,4.921,28.297
			c3.279,5.92,7.347,8.876,12.205,8.876h1.937v13.012h-46.262v-13.012h3.177c4.543,0,8.369-3.262,11.469-9.776
			c3.1-6.523,4.649-14.909,4.649-25.158V379.99c-3.463-8.264-7.88-12.4-13.251-12.4h-5.114V354.578z"/>
		<path fill="#008F5B" d="M997.006,354.578h5.462l2.77,79.847h-6.77c-3.645-23.863-8.578-41.089-14.81-51.677
			c-6.232-10.58-13.17-15.875-20.81-15.875c-5.847,0-11.17,3.065-15.964,9.179c-4.799,6.122-8.554,15.689-11.271,28.693
			c-2.721,13.004-4.077,30.762-4.077,53.256c0,25.29,1.125,44.103,3.38,56.431c2.255,12.337,5.683,21.49,10.295,27.477
			c4.606,5.987,9.91,8.976,15.901,8.976c7.891,0,14.06-3.918,18.517-11.754c4.453-7.836,6.684-18.239,6.684-31.209v-18.239
			c0-3.327-0.5-5.826-1.5-7.498c-1-1.663-2.452-2.499-4.347-2.499h-11.925v-12.295h55.084v12.295h-6.924
			c-2.462,0-4.246,0.878-5.347,2.635c-1.106,1.756-1.654,4.214-1.654,7.363v73.632h-6.001l-9.617-33.641
			c-4.308,11.712-9.323,20.266-15.04,25.67c-5.722,5.404-12.454,8.106-20.195,8.106c-10.309,0-19.695-4.315-28.158-12.962
			c-8.463-8.638-15.002-20.477-19.618-35.507c-4.616-15.03-6.924-33.084-6.924-54.143c0-31.057,5.438-56.524,16.31-76.418
			c10.876-19.894,24.186-29.841,39.933-29.841c5.847,0,11.054,1.511,15.617,4.526c4.563,3.023,9.41,8.309,14.545,15.875
			L997.006,354.578z"/>
		<path fill="#008F5B" d="M1108.061,354.578l39.928,182.831c1.152,5.149,2.403,8.637,3.744,10.471
			c1.35,1.843,3.123,2.756,5.336,2.756h3.887v12.813h-49.962v-12.813h4.679c3.694,0,6.236-0.775,7.631-2.342
			c1.39-1.559,2.088-3.625,2.088-6.2c0-2.015-0.288-4.357-0.864-7.027l-8.212-37.751h-39.861l-3.788,17.222
			c-1.584,7.164-2.376,12.495-2.376,15.982c0,5.976,1.152,10.816,3.46,14.536c2.308,3.72,5.458,5.58,9.449,5.58h3.388v12.813
			h-40.459v-12.813h2.313c2.601,0,4.886-1.559,6.862-4.684c2.794-4.409,4.958-10.058,6.502-16.947l38.173-174.427H1108.061z
			 M1096.488,406.168l-17.062,77.647h33.953L1096.488,406.168z"/>
	</g>
</g>
<g>
	<g>
		<path fill="#6F776F" d="M190.989,655.477c-3.851-2.541-8.355-3.832-13.388-3.832h-27.676v8.689h5.945
			c0.434,0,0.697,0.051,0.778,0.036c0.022,0.097,0.046,0.276,0.046,0.556v41.508c0,0.566-0.107,0.827-0.383,0.852h-3.387h-2.999
			h-1.207c-0.366,0-0.649-0.061-0.783-0.173c-0.002-0.005-0.368-0.337-0.863-1.699l-18.148-51.147h-7.026l-17.37,48.85
			c-0.539,1.475-1.288,2.689-2.222,3.602c-0.405,0.393-0.812,0.566-1.317,0.566h-3.514v8.689h22.772v-8.689h-3.985
			c-1.1,0-1.897-0.26-2.436-0.796c-0.344-0.342-0.741-0.883-0.741-2.031c0-0.219,0.063-1.123,0.888-3.408l1.058-2.959h14.044
			l3.002,8.496c0.08,0.23,0.132,0.413,0.166,0.561c-0.29,0.066-0.819,0.138-1.712,0.138h-4.553v8.689h23.947h2.999h25.596
			c4.56,0,8.879-1.357,12.834-4.031c3.951-2.669,6.96-6.307,8.95-10.807c1.936-4.393,2.919-9.577,2.919-15.419
			c0-5.664-1.073-10.848-3.192-15.414C197.873,661.661,194.83,658.018,190.989,655.477z M171.907,703.491
			c-0.002-0.005-0.127-0.281-0.127-1.097v-41.727c0-0.071,0.002-0.133,0.005-0.189c0.385-0.066,1.092-0.143,2.304-0.143
			c3.336,0,5.823,0.587,7.387,1.74s2.856,3.235,3.846,6.184c1.071,3.204,1.614,7.985,1.614,14.22c0,5.914-0.454,10.271-1.349,12.955
			c-0.829,2.485-2.124,4.378-3.96,5.786c-1.809,1.393-3.841,2.066-6.209,2.066L171.907,703.491z M118.202,685.214l3.887-10.889
			l3.848,10.889H118.202z"/>
		<path fill="#6F776F" d="M235.44,682.418l-8.757-30.773H203.48v8.689h6.199c0.293,0,0.51,0.02,0.661,0.041
			c0.037,0.224,0.068,0.582,0.068,1.112v35.615c0,1.867-0.417,3.322-1.273,4.444c-0.793,1.041-1.873,1.597-3.402,1.75l-2.253,0.235
			v8.444h22.362v-8.388l-2.195-0.281c-1.753-0.224-3.009-0.811-3.838-1.796c-0.836-0.995-1.244-2.291-1.244-3.959v-22.349
			l10.464,36.773h6.518l10.513-36.518v27.349c0,0.245-0.024,0.408-0.039,0.48h-6.984v8.689h28.815v-8.689h-6.216
			c-0.298,0-0.705-0.036-0.658,0.117c0,0-0.054-0.168-0.054-0.597v-42.105c0-0.143,0.005-0.26,0.012-0.362
			c0.063-0.005,0.139-0.005,0.222-0.005h6.694v-8.689H244.16L235.44,682.418z"/>
		<path fill="#6F776F" d="M271.129,660.575h6.672c0.202,0,0.339,0.015,0.417,0.01c0.015,0.092,0.029,0.235,0.029,0.434l0.137,42.37
			c-0.005,0.005-0.276,0.138-1.088,0.138h-6.167v8.689h28.973v-8.689h-6.357c-0.51,0-0.741-0.097-0.634-0.332l0.161-42.62h6.831
			v-8.689h-28.973V660.575z"/>
		<path fill="#6F776F" d="M336.222,660.151l2.314,0.179c1.568,0.117,2.709,0.648,3.487,1.617c0.844,1.056,1.253,2.5,1.253,4.419
			v17.399l-21.543-32.12h-18.316v8.689h4.587c0.805,0,1.839,0.189,2.912,1.551v34.712c0,2.158-0.454,3.832-1.385,5.113
			c-1.019,1.398-1.975,1.577-2.697,1.577h-3.794v8.689h23.879v-8.689h-3.287c-1.266,0-2.256-0.469-3.117-1.485
			c-0.902-1.061-1.378-3.067-1.378-5.801v-21.762l25.025,37.737h7.462v-45.61c0-2.067,0.351-3.628,1.017-4.516
			c0.607-0.806,1.77-1.327,3.456-1.536l2.202-0.27v-8.399h-22.077V660.151z"/>
		<path fill="#6F776F" d="M361.133,660.335h6.672c0.205,0,0.334,0.015,0.415,0.01c0.015,0.092,0.029,0.235,0.029,0.434l0.139,42.37
			c-0.002,0-0.276,0.138-1.088,0.138h-6.167v8.689h28.973v-8.689h-6.357c-0.524,0-0.751-0.107-0.634-0.332l0.159-42.62h6.833v-8.689
			h-28.973V660.335z"/>
		<path fill="#6F776F" d="M424.117,676.101c-1.929-0.995-5.177-2.046-9.93-3.214c-4.543-1.107-6.589-1.959-7.511-2.485
			c-1.132-0.643-1.941-1.383-2.397-2.199c-0.473-0.847-0.702-1.755-0.702-2.781c0-1.811,0.6-3.266,1.89-4.587
			c1.285-1.316,2.956-1.954,5.104-1.954c2.643,0,5.028,1.097,7.289,3.357c2.38,2.378,4.27,6.113,5.619,11.098l0.515,1.903h7.269
			l-0.361-24.267h-6.087l-2.161,3.612c-3.702-2.868-7.755-4.317-12.083-4.317c-5.501,0-9.981,1.873-13.317,5.567
			c-3.297,3.653-4.967,8.383-4.967,14.062c0,3.383,0.617,6.342,1.834,8.786c1.236,2.48,3.17,4.587,5.75,6.261
			c2.448,1.587,6.296,3.051,11.774,4.47c4.809,1.214,6.318,1.76,6.777,1.97c1.324,0.612,2.28,1.383,2.851,2.281
			c0.568,0.898,0.846,2.041,0.846,3.485c0,2.097-0.663,3.72-2.083,5.113c-1.451,1.418-3.531,2.107-6.353,2.107
			c-7.211,0-11.917-5.067-14.385-15.491l-0.471-1.985h-7.235v25.64h6.126l2.865-4.209c3.929,3.169,8.257,4.771,12.898,4.771
			c5.938,0,11.003-2.092,15.058-6.215c3.46-3.526,5.216-8.256,5.216-14.052c0-3.868-0.814-7.24-2.422-10.016
			C429.718,680.02,427.297,677.765,424.117,676.101z"/>
		<path fill="#6F776F" d="M435.244,651.645l-1.268,26.165h7.518l0.354-2.174c1.136-6.944,3.524-15.226,8.452-15.226
			c0.38,0,0.524,0.061,0.319,0.291l0.029,42.585h-7.557v8.689h30.014v-8.689l-7.528-0.184l0.256-42.692
			c1.112,0,2.114,0.352,3.063,1.077c1.022,0.781,1.992,2.235,2.882,4.306c0.98,2.291,1.8,5.592,2.439,9.812l0.332,2.204h7.645
			l-1.307-26.165H435.244z"/>
		<path fill="#6F776F" d="M534.188,694.307h-7.74l-0.156,2.439c-0.037,0.566-0.08,1.066-0.129,1.505
			c-0.063-0.276-0.132-0.566-0.2-0.893c-0.893-3.949-2.066-7.398-3.482-10.246c-0.983-1.99-2.134-3.613-3.429-4.832
			c1.736-0.668,3.207-1.505,4.433-2.505c3.704-3.016,5.582-7.016,5.582-11.889c0-3.01-0.741-5.796-2.207-8.281
			c-1.48-2.51-3.724-4.495-6.665-5.914c-2.817-1.357-6.431-2.046-10.74-2.046h-26.917v8.689l6.443-0.173
			c0.002,0.005,0.105,0.23,0.105,0.878v41.544c-0.002,0.556-0.156,0.674-0.383,0.704h-6.165v8.689h28.688v-8.689h-6.738
			c-0.178,0-0.312-0.036-0.38-0.367v-17.695h0.951c0.912,0,1.627,0.209,2.18,0.638c0.615,0.48,1.153,1.296,1.597,2.434
			c0.378,0.964,1.024,3.276,1.958,8.786c0.939,5.5,1.417,7.189,1.685,7.944c0.795,2.337,2.009,4.169,3.604,5.444
			c1.651,1.322,3.785,1.99,6.343,1.99c3.582,0,6.428-1.337,8.462-3.975c1.895-2.464,2.934-6.21,3.175-11.44L534.188,694.307z
			 M504.108,661.932c0-0.704,0.049-1.153,0.095-1.424c0.327-0.066,0.914-0.138,1.9-0.138c2.924,0,4.994,0.566,5.982,1.643
			c1.027,1.117,1.549,3.107,1.549,5.919c0,3.056-0.539,5.24-1.544,6.312c-1.551,1.617-3.685,2.403-6.523,2.403h-1.458V661.932z"/>
		<path fill="#6F776F" d="M584.158,703.119c-0.005-0.005-0.371-0.337-0.868-1.704l-18.148-51.147h-7.023l-17.373,48.85
			c-0.539,1.48-1.288,2.694-2.219,3.602c-0.412,0.398-0.805,0.566-1.319,0.566h-3.512v8.689h22.772v-8.689h-3.987
			c-1.097,0-1.895-0.26-2.434-0.796c-0.344-0.342-0.741-0.883-0.741-2.031c0-0.219,0.063-1.123,0.885-3.408l1.058-2.959h14.044
			l3.004,8.501c0.081,0.224,0.132,0.408,0.166,0.556c-0.293,0.066-0.822,0.138-1.712,0.138h-4.555v8.689h26.949v-8.689h-4.207
			C584.572,703.287,584.284,703.226,584.158,703.119z M554.419,685.214l3.887-10.889l3.851,10.889H554.419z"/>
		<path fill="#6F776F" d="M587.023,651.645l-1.263,26.165h7.518l0.354-2.174c1.136-6.944,3.524-15.226,8.452-15.226
			c0.38,0,0.522,0.061,0.319,0.291l0.029,42.585h-7.56v8.689h30.017v-8.689l-7.528-0.184l0.256-42.692
			c1.112,0,2.114,0.352,3.063,1.077c1.022,0.781,1.992,2.235,2.882,4.306c0.98,2.291,1.8,5.592,2.439,9.812l0.332,2.204h7.643
			l-1.305-26.165H587.023z"/>
		<path fill="#6F776F" d="M637.048,660.335h6.672c0.202,0,0.339,0.015,0.415,0.01c0.015,0.092,0.029,0.235,0.029,0.434l0.139,42.37
			c-0.002,0-0.276,0.138-1.09,0.138h-6.165v8.689h28.971v-8.689h-6.355c-0.524,0-0.751-0.107-0.634-0.332l0.159-42.62h6.831v-8.689
			h-28.971V660.335z"/>
		<path fill="#6F776F" d="M710.185,688.112c-0.532,5.286-1.861,9.22-3.948,11.7c-1.966,2.337-4.446,3.475-7.582,3.475h-5.631
			c-0.576,0-0.932-0.077-1.078-0.117v-17.741c1.68,0.117,2.89,0.658,3.685,1.653c0.707,0.888,1.592,2.893,1.795,7.424l0.112,2.49
			h7.725v-30.859h-7.669l-0.163,2.429c-0.268,3.939-1.161,5.791-1.861,6.648c-0.544,0.668-1.51,1.541-3.658,1.612l-0.212-16.43
			c0,0,0.154-0.061,0.563-0.061h6.392c2.097,0,3.773,0.378,4.965,1.117c1.197,0.75,2.151,1.878,2.919,3.444
			c0.585,1.194,1.444,3.725,2.204,9.011l0.322,2.225h7.555l-1.166-24.486h-45.617v8.689h6.199c0.458,0,0.766,0.036,0.919,0.051
			v42.345c0,0.352-0.063,0.52-0.415,0.556h-6.704v8.689h47.392l0.871-26.201h-7.682L710.185,688.112z"/>
		<path fill="#6F776F" d="M752.155,676.101c-1.929-0.995-5.177-2.046-9.93-3.214c-4.543-1.107-6.589-1.959-7.511-2.485
			c-1.134-0.643-1.941-1.383-2.4-2.199c-0.471-0.847-0.7-1.755-0.7-2.781c0-1.811,0.6-3.266,1.89-4.587
			c1.285-1.316,2.953-1.954,5.102-1.954c2.646,0,5.031,1.097,7.291,3.357c2.38,2.378,4.27,6.113,5.619,11.098l0.515,1.903h7.269
			l-0.361-24.267h-6.087l-2.161,3.612c-3.702-2.868-7.757-4.317-12.086-4.317c-5.499,0-9.979,1.873-13.315,5.567
			c-3.297,3.653-4.967,8.383-4.967,14.062c0,3.383,0.617,6.342,1.834,8.786c1.236,2.485,3.173,4.592,5.75,6.261
			c2.448,1.587,6.294,3.051,11.771,4.47c4.814,1.214,6.321,1.76,6.779,1.97c1.324,0.612,2.28,1.383,2.851,2.281
			c0.568,0.898,0.846,2.041,0.846,3.485c0,2.097-0.663,3.72-2.083,5.113c-1.451,1.418-3.531,2.107-6.353,2.107
			c-7.211,0-11.917-5.067-14.388-15.491l-0.471-1.985h-7.233v25.64h6.126l2.865-4.209c3.929,3.169,8.257,4.771,12.898,4.771
			c5.938,0,11.003-2.092,15.061-6.215c3.46-3.531,5.214-8.256,5.214-14.052c0-3.868-0.815-7.24-2.422-10.016
			C757.757,680.02,755.335,677.765,752.155,676.101z"/>
		<path fill="#6F776F" d="M821.156,688.112c-0.532,5.291-1.858,9.225-3.946,11.7c-1.97,2.337-4.453,3.475-7.584,3.475h-5.633
			c-0.58,0-0.932-0.077-1.078-0.117v-17.741c1.678,0.117,2.892,0.658,3.687,1.653c0.707,0.883,1.59,2.888,1.795,7.424l0.107,2.49
			h7.73v-30.859h-7.672l-0.166,2.429c-0.263,3.944-1.156,5.796-1.853,6.648c-0.858,1.046-2.024,1.561-3.663,1.612l-0.21-16.43
			c0,0,0.156-0.061,0.566-0.061h6.389c2.097,0,3.77,0.378,4.965,1.117c1.195,0.75,2.151,1.878,2.917,3.444
			c0.59,1.199,1.448,3.735,2.209,9.011l0.317,2.225h7.56l-1.171-24.486h-45.614v8.689h6.199c0.458,0,0.766,0.036,0.919,0.051v42.345
			c0,0.352-0.063,0.515-0.415,0.556h-6.704v8.689h47.389l0.873-26.201h-7.682L821.156,688.112z"/>
		<path fill="#6F776F" d="M862.9,660.151l2.312,0.179c1.57,0.117,2.712,0.648,3.487,1.617c0.844,1.061,1.253,2.505,1.253,4.419
			v17.399l-21.543-32.12h-18.314v8.689h4.585c0.805,0,1.839,0.189,2.912,1.551v34.712c0,2.158-0.454,3.832-1.385,5.113
			c-1.019,1.398-1.975,1.577-2.697,1.577h-3.794v8.689h23.879v-8.689h-3.287c-1.263,0-2.258-0.475-3.121-1.485
			c-0.897-1.061-1.375-3.067-1.375-5.801v-21.762l25.03,37.737h7.462v-45.61c0-2.072,0.351-3.633,1.014-4.516
			c0.605-0.806,1.77-1.327,3.453-1.536l2.205-0.27v-8.399H862.9V660.151z"/>
		<path fill="#6F776F" d="M949.163,683.939c-1.449-1.556-3.351-2.837-5.75-3.873c1.346-0.867,2.507-1.837,3.473-2.908
			c2.453-2.73,3.697-6.087,3.697-9.985c0-4.409-1.546-8.149-4.589-11.118c-2.995-2.924-7.072-4.408-12.11-4.408H903.01v8.689h6.135
			c0.263,0,0.458,0.015,0.6,0.031v42.182c0,0.403-0.078,0.663-0.044,0.74h-6.692v8.689h29.322c4.18,0,7.891-0.709,11.022-2.107
			c3.292-1.475,5.58-3.184,7.009-5.24c1.907-2.76,2.878-6.057,2.878-9.807C953.24,690.505,951.87,686.842,949.163,683.939z
			 M933.492,674.744c-1.058,1.209-3.058,1.827-5.936,1.827h-2.785l0.044-16.073c0.366-0.061,1.01-0.128,2.073-0.128
			c4.594,0,6.243,0.964,6.813,1.541c0.966,0.975,1.478,2.959,1.478,5.74C935.18,671.029,934.599,673.484,933.492,674.744z
			 M924.806,703.287c-0.019-0.138-0.039-0.327-0.039-0.592V685.26h4.624c2.756,0,4.741,0.735,6.077,2.24
			c1.361,1.541,2.053,3.929,2.053,7.108c0,3.005-0.634,5.24-1.878,6.648c-1.214,1.367-2.907,2.031-5.18,2.031H924.806z"/>
		<path fill="#6F776F" d="M993.272,688.112c-0.532,5.286-1.858,9.225-3.941,11.7c-1.97,2.337-4.453,3.475-7.589,3.475h-5.628
			c-0.576,0-0.932-0.077-1.078-0.117v-17.741c1.678,0.117,2.887,0.658,3.687,1.658c0.707,0.883,1.59,2.883,1.795,7.419l0.107,2.49
			h7.725v-30.859h-7.667l-0.166,2.429c-0.263,3.939-1.156,5.791-1.858,6.648c-0.546,0.668-1.512,1.541-3.658,1.612l-0.215-16.43
			c0.005,0,0.156-0.061,0.566-0.061h6.389c2.097,0,3.77,0.378,4.97,1.122c1.19,0.74,2.146,1.867,2.917,3.444
			c0.849,1.725,1.59,4.755,2.205,9.006l0.317,2.225h7.56l-1.166-24.486h-45.616v8.689h6.199c0.458,0,0.761,0.036,0.917,0.051v42.345
			c0,0.352-0.063,0.52-0.415,0.556h-6.701v8.689h47.397l0.863-26.201h-7.682L993.272,688.112z"/>
		<path fill="#6F776F" d="M1041.961,687.735c-1.078,5.71-2.59,9.853-4.492,12.312c-1.688,2.179-3.351,3.24-5.082,3.24h-6.735
			c-0.58,0-0.98-0.036-1.239-0.071c-0.034-0.255-0.063-0.638-0.063-1.194v-40.983c0-0.342,0.029-0.561,0.019-0.653
			c0.122-0.026,0.322-0.051,0.62-0.051h6.545v-8.689h-29.005v8.689h6.199c0.663,0,0.897,0.107,0.663,0.296v42.136
			c0,0.372-0.083,0.582-0.254,0.52h-6.609v8.689h46.016l1.346-26.349h-7.535L1041.961,687.735z"/>
		<path fill="#6F776F" d="M1103.073,703.124c-0.005-0.005-0.375-0.342-0.873-1.709l-18.148-51.147h-7.023l-17.368,48.85
			c-0.541,1.48-1.288,2.694-2.224,3.602c-0.405,0.393-0.814,0.566-1.317,0.566h-3.516v8.689h22.772v-8.689h-3.985
			c-1.097,0-1.892-0.26-2.434-0.796c-0.346-0.342-0.741-0.883-0.741-2.031c0-0.225,0.063-1.128,0.888-3.408l1.053-2.959h14.046
			l3.004,8.485c0.078,0.235,0.132,0.423,0.166,0.577c-0.293,0.061-0.819,0.133-1.712,0.133h-4.555v8.689h26.947v-8.689h-4.204
			C1103.473,703.287,1103.195,703.226,1103.073,703.124z M1073.331,685.214l3.887-10.889l3.848,10.889H1073.331z"/>
		<path fill="#6F776F" d="M1143.544,676.101c-1.936-1-5.18-2.046-9.93-3.214c-4.546-1.107-6.589-1.959-7.511-2.485
			c-1.136-0.643-1.941-1.383-2.4-2.204c-0.473-0.842-0.702-1.75-0.702-2.776c0-1.811,0.6-3.271,1.892-4.587
			c1.283-1.316,2.951-1.954,5.102-1.954c2.648,0,5.028,1.097,7.286,3.357c2.38,2.378,4.272,6.113,5.619,11.098l0.517,1.903h7.272
			l-0.366-24.267h-6.087l-2.156,3.612c-3.702-2.868-7.755-4.317-12.086-4.317c-5.502,0-9.979,1.873-13.315,5.567
			c-3.297,3.653-4.97,8.383-4.97,14.062c0,3.383,0.615,6.342,1.834,8.786c1.244,2.485,3.175,4.592,5.75,6.261
			c2.453,1.592,6.301,3.051,11.774,4.47c4.809,1.214,6.321,1.76,6.779,1.97c1.322,0.612,2.278,1.383,2.848,2.276
			c0.561,0.893,0.849,2.066,0.849,3.49c0,2.092-0.663,3.72-2.083,5.113c-1.453,1.418-3.531,2.107-6.355,2.107
			c-7.213,0-11.92-5.067-14.388-15.491l-0.468-1.985h-7.233v25.64h6.126l2.863-4.209c3.931,3.169,8.257,4.771,12.9,4.771
			c5.94,0,11.003-2.092,15.056-6.215c3.463-3.526,5.219-8.256,5.219-14.052c0-3.873-0.814-7.24-2.424-10.016
			C1149.148,680.02,1146.724,677.765,1143.544,676.101z"/>
		<path fill="#6F776F" d="M1154.664,651.645l-1.258,26.165h7.516l0.356-2.174c1.136-6.944,3.521-15.226,8.447-15.226
			c0.38,0,0.522,0.061,0.322,0.291l0.029,42.585h-7.56v8.689h30.014v-8.689l-7.526-0.184l0.254-42.692
			c1.112,0,2.117,0.352,3.068,1.077c1.019,0.786,1.99,2.23,2.878,4.312c0.98,2.276,1.8,5.577,2.439,9.807l0.337,2.204h7.638
			l-1.302-26.165H1154.664z"/>
		<path fill="#6F776F" d="M1203.406,660.197h6.672c0.205,0,0.356,0.005,0.415,0.01c0.015,0.092,0.029,0.23,0.029,0.429l0.137,42.376
			c-0.005,0-0.278,0.133-1.088,0.133h-6.165v8.695h28.971v-8.695h-6.355c-0.6,0-0.78-0.133-0.634-0.327l0.161-42.62h6.828v-8.689
			h-28.971V660.197z"/>
		<path fill="#6F776F" d="M1269.473,660.013l2.312,0.179c1.57,0.117,2.712,0.648,3.492,1.623c0.839,1.051,1.249,2.49,1.249,4.414
			v17.399l-21.543-32.12h-18.314v8.689h4.585c0.805,0,1.839,0.189,2.912,1.551v34.707c0,2.163-0.453,3.837-1.385,5.113
			c-1.019,1.398-1.975,1.577-2.697,1.577h-3.795v8.695h23.879v-8.695h-3.287c-1.263,0-2.258-0.474-3.117-1.485
			c-0.902-1.056-1.375-3.061-1.375-5.801v-21.762l25.025,37.743h7.462v-45.61c0-2.066,0.351-3.628,1.024-4.521
			c0.6-0.806,1.756-1.322,3.443-1.531l2.204-0.27v-8.399h-22.074V660.013z"/>
		<path fill="#6F776F" d="M1345.675,689.852v-8.613h-27.644v8.613l7.306,0.148v5.026c0,2.944-0.693,5.194-2.117,6.873
			c-1.351,1.592-3.229,2.368-5.745,2.368c-1.883,0-3.497-0.612-4.946-1.878c-1.492-1.296-2.643-3.408-3.429-6.281
			c-0.858-3.153-1.292-8.149-1.292-14.848c0-5.909,0.522-10.577,1.556-13.873c0.961-3.087,2.253-5.342,3.838-6.705
			c3.556-3.051,8.042-2.577,11.7,1.597c2.258,2.566,4.111,6.97,5.501,13.088l0.458,2.005h7.394l-1.414-27.247h-6.16l-1.922,4.077
			c-1.434-1.143-2.839-2.021-4.189-2.618c-2.18-0.969-4.667-1.459-7.394-1.459c-7.209,0-13.373,3.077-18.324,9.149
			c-4.843,5.954-7.301,13.618-7.301,22.772c0,6.174,1.039,11.577,3.092,16.057c2.092,4.567,5.102,8.215,8.95,10.848
			c3.877,2.658,8.238,4.005,12.949,4.005c3.629,0,6.857-0.878,9.598-2.612c1.59-1.015,3.063-2.357,4.409-4.026l2.814,6.597h6.584
			l-0.19-22.997c0,0,0.156-0.066,0.571-0.066H1345.675z"/>
		<path fill="#6F776F" d="M1384.824,687.969c-0.532,5.286-1.858,9.225-3.946,11.705c-1.966,2.332-4.448,3.47-7.584,3.47h-5.633
			c-0.575,0-0.927-0.077-1.078-0.117v-17.736c1.678,0.117,2.892,0.658,3.687,1.648c0.707,0.883,1.59,2.888,1.795,7.429l0.107,2.49
			h7.73v-30.859h-7.672l-0.166,2.429c-0.263,3.934-1.156,5.786-1.863,6.648c-0.541,0.663-1.507,1.541-3.653,1.612l-0.215-16.43
			c0.005,0,0.156-0.061,0.566-0.061h6.394c2.102,0,3.775,0.378,4.965,1.117c1.195,0.75,2.151,1.878,2.917,3.444
			c0.849,1.73,1.595,4.761,2.209,9.016l0.322,2.22h7.55l-1.166-24.486h-45.617v8.689h6.199c0.468,0,0.771,0.036,0.922,0.051v42.345
			c0,0.327-0.054,0.505-0.415,0.551h-6.706v8.695h47.392l0.873-26.206h-7.682L1384.824,687.969z"/>
		<path fill="#6F776F" d="M1426.563,651.508v8.506l2.317,0.179c1.571,0.117,2.712,0.648,3.487,1.617
			c0.844,1.056,1.253,2.5,1.253,4.419v17.399l-21.547-32.12h-18.314v8.689h4.585c0.805,0,1.844,0.189,2.917,1.551v34.707
			c0,2.163-0.454,3.832-1.39,5.118c-1.015,1.393-1.975,1.572-2.697,1.572h-3.79v8.695h23.879v-8.695h-3.287
			c-1.268,0-2.258-0.469-3.121-1.49c-0.902-1.056-1.375-3.056-1.375-5.796v-21.762l25.025,37.743h7.462v-45.61
			c0-2.066,0.351-3.628,1.019-4.521c0.605-0.806,1.766-1.316,3.453-1.531l2.204-0.27v-8.399H1426.563z"/>
	</g>
</g>
</svg>
